<svg width="116" height="30" viewBox="0 0 116 30" fill="none" xmlns="http://www.w3.org/2000/svg">
<g clip-path="url(#clip0_10818_286)">
<path d="M6.90199 25.1015C14.1707 25.1015 24.2265 29.148 31.5229 29.148C36.7297 29.148 41.8097 27.775 44.7009 25.751C44.9025 24.563 45.0098 23.3444 45.0098 22.0985C45.0098 10.022 35.1068 0.229891 22.8899 0.229891C10.6729 0.229891 0.768311 10.022 0.768311 22.1001C0.768311 23.3299 0.872381 24.5357 1.07077 25.7108C1.86756 25.5645 4.57828 25.1015 6.90362 25.1015H6.90199Z" fill="white"/>
<path d="M107.797 29.3875H56.63V30.0016H107.797V29.3875Z" fill="#FCBA19"/>
<path d="M57.9423 7.46905C57.9423 6.44178 57.8691 6.17009 57.1682 6.11382L56.6804 6.08006C56.6007 6.01736 56.6235 5.73924 56.6967 5.73281C57.5374 5.65886 58.5976 5.62189 60.0465 5.62189C61.0286 5.62189 61.9636 5.69101 62.6645 6.01093C63.3344 6.30191 63.8483 6.85655 63.8483 7.74557C63.8483 8.74551 63.193 9.25835 62.2596 9.64739C62.2596 9.78565 62.3848 9.82745 62.5555 9.85478C63.3962 9.99303 64.6435 10.6875 64.6435 12.173C64.6435 13.7822 63.3035 14.8658 60.4985 14.8658C60.0465 14.8658 59.2838 14.824 58.6285 14.824C57.9732 14.824 57.4138 14.8513 56.8365 14.8658C56.7438 14.824 56.7113 14.6021 56.8056 14.5185L57.0869 14.4767C57.913 14.3513 57.9439 14.1986 57.9439 12.7421V7.46905H57.9423ZM59.2188 9.31461C59.2188 9.70366 59.235 9.73099 60.0286 9.70366C61.6173 9.64739 62.4742 9.23102 62.4742 7.92723C62.4742 6.62344 61.336 6.05434 60.1521 6.05434C59.809 6.05434 59.5749 6.08167 59.435 6.13793C59.2789 6.17973 59.2171 6.24886 59.2171 6.49804V9.31461H59.2188ZM59.2188 12.5347C59.2188 13.0347 59.2497 13.742 59.5456 14.0475C59.8416 14.3658 60.3099 14.4365 60.7766 14.4365C62.1636 14.4365 63.2222 13.8819 63.2222 12.4945C63.2222 11.3981 62.5994 10.1216 60.1213 10.1216C59.2806 10.1216 59.2171 10.2052 59.2171 10.4818V12.5347H59.2188Z" fill="#013366"/>
<path d="M75.4701 8.83554C75.4701 7.57837 75.4441 7.37742 74.6587 7.31794L74.3253 7.29382C74.2456 7.2472 74.2717 7.03338 74.3513 6.99802C75.0164 7.02213 75.4685 7.03338 76.0278 7.03338C76.5872 7.03338 77.0133 7.02213 77.6784 6.99802C77.758 7.03338 77.784 7.2472 77.7044 7.29382L77.3726 7.31794C76.5872 7.37742 76.5612 7.57837 76.5612 8.83554V13.0556C76.5612 14.3127 76.5872 14.4783 77.3726 14.5603L77.7044 14.5957C77.784 14.6423 77.758 14.8561 77.6784 14.8915C77.0133 14.8674 76.5612 14.8561 76.0278 14.8561C75.4685 14.8561 75.0164 14.8674 74.3513 14.8915C74.2717 14.8561 74.244 14.6664 74.3253 14.5957L74.6587 14.5603C75.4441 14.4767 75.4701 14.3111 75.4701 13.0556V8.83554Z" fill="#013366"/>
<path d="M82.8526 13.0781C82.8526 14.3224 82.877 14.5008 83.6006 14.5603L83.999 14.5957C84.0738 14.6423 84.0494 14.8561 83.9746 14.8915C83.264 14.8674 82.8396 14.8561 82.3404 14.8561C81.8412 14.8561 81.4054 14.8674 80.607 14.8915C80.5322 14.8561 80.5061 14.6552 80.607 14.5957L81.0558 14.5603C81.7664 14.5008 81.8282 14.3224 81.8282 13.0781V7.77932C81.8282 7.41279 81.8282 7.39992 81.4542 7.39992H80.768C80.2313 7.39992 79.5467 7.42404 79.2345 7.69573C78.9353 7.95616 78.8101 8.2166 78.6735 8.51401C78.5727 8.58475 78.3987 8.52527 78.3499 8.43042C78.5483 7.89668 78.7369 7.13788 78.8231 6.66524C78.8605 6.64112 79.0231 6.62987 79.0605 6.66524C79.1353 7.04464 79.5467 7.03338 80.1208 7.03338H85.1698C85.843 7.03338 85.9552 7.00927 86.1422 6.70221C86.204 6.6781 86.3422 6.69096 86.3666 6.73758C86.23 7.22308 86.1422 8.18445 86.1796 8.53973C86.1292 8.63458 85.9178 8.63458 85.856 8.56385C85.8186 8.26804 85.7308 7.82916 85.5438 7.69894C85.2576 7.49799 84.7828 7.40314 84.0982 7.40314H83.2136C82.8396 7.40314 82.8526 7.41439 82.8526 7.80665V13.0813V13.0781Z" fill="#013366"/>
<path d="M88.1976 8.83554C88.1976 7.57837 88.1716 7.37742 87.3862 7.31794L87.0529 7.29382C86.9732 7.2472 86.9992 7.03338 87.0789 6.99802C87.744 7.02213 88.196 7.03338 88.7554 7.03338C89.3148 7.03338 89.7392 7.02213 90.4059 6.99802C90.4856 7.03338 90.5132 7.2472 90.4335 7.29382L90.1002 7.31794C89.3148 7.37742 89.2888 7.57837 89.2888 8.83554V13.0556C89.2888 14.3127 89.3148 14.4783 90.1002 14.5603L90.4335 14.5957C90.5132 14.6423 90.4872 14.8561 90.4059 14.8915C89.7408 14.8674 89.2888 14.8561 88.7554 14.8561C88.196 14.8561 87.744 14.8674 87.0789 14.8915C86.9992 14.8561 86.9732 14.6664 87.0529 14.5957L87.3862 14.5603C88.1716 14.4767 88.1976 14.3111 88.1976 13.0556V8.83554Z" fill="#013366"/>
<path d="M94.1606 15.0137C92.9719 15.0137 92.2223 14.705 91.954 14.5748C91.7848 14.3143 91.5995 13.4719 91.5718 12.9157C91.6434 12.8321 91.8548 12.8096 91.9117 12.8803C92.1247 13.4848 92.7036 14.6455 94.3443 14.6455C95.533 14.6455 96.1119 13.9944 96.1119 13.2822C96.1119 12.7614 95.9851 12.1794 94.9525 11.6232L93.6093 10.8885C92.902 10.4978 92.0808 9.82102 92.0808 8.85001C92.0808 7.72467 93.128 6.81153 94.9671 6.81153C95.4062 6.81153 95.9152 6.88227 96.2827 6.96586C96.4664 7.01249 96.6648 7.0366 96.777 7.0366C96.9038 7.32115 97.0323 7.9851 97.0323 8.48347C96.9754 8.5542 96.7494 8.58957 96.6778 8.51884C96.4941 7.94973 96.1119 7.17968 94.7541 7.17968C93.3963 7.17968 93.0711 7.94973 93.0711 8.49472C93.0711 9.18279 93.7508 9.68115 94.2728 9.95284L95.4046 10.5461C96.2957 11.0091 97.1738 11.6955 97.1738 12.8225C97.1738 14.1263 95.9997 15.0153 94.1606 15.0153V15.0137Z" fill="#013366"/>
<path d="M101.281 11.0283C100.662 11.0283 100.637 11.0525 100.637 11.4077V13.0797C100.637 14.324 100.702 14.4896 101.424 14.5619L101.798 14.5973C101.876 14.6439 101.85 14.8577 101.772 14.8931C101.076 14.869 100.637 14.8577 100.133 14.8577C99.5788 14.8577 99.1397 14.8818 98.6373 14.8931C98.5608 14.8577 98.5348 14.668 98.6112 14.5973L98.8308 14.5619C99.5544 14.443 99.5788 14.324 99.5788 13.0797V8.81303C99.5788 7.56873 99.4893 7.36777 98.8177 7.31954L98.4828 7.29543C98.4047 7.24881 98.4307 7.03499 98.5088 6.99963C99.1413 7.01088 99.5788 7.03499 100.135 7.03499C100.639 7.03499 101.076 7.02374 101.631 6.99963C101.709 7.03499 101.733 7.24881 101.657 7.29543L101.411 7.31954C100.663 7.39028 100.637 7.56873 100.637 8.81303V10.1763C100.637 10.5428 100.663 10.5557 101.281 10.5557H104.971C105.59 10.5557 105.617 10.5445 105.617 10.1763V8.81303C105.617 7.56873 105.59 7.39028 104.829 7.31954L104.584 7.29543C104.506 7.24881 104.532 7.03499 104.61 6.99963C105.203 7.02374 105.643 7.03499 106.171 7.03499C106.699 7.03499 107.113 7.02374 107.693 6.99963C107.771 7.03499 107.795 7.24881 107.719 7.29543L107.449 7.31954C106.701 7.39028 106.675 7.56873 106.675 8.81303V13.0797C106.675 14.324 106.701 14.4783 107.449 14.5619L107.758 14.5973C107.835 14.6439 107.81 14.8577 107.732 14.8931C107.113 14.869 106.673 14.8577 106.171 14.8577C105.643 14.8577 105.177 14.869 104.61 14.8931C104.532 14.8577 104.508 14.668 104.584 14.5973L104.829 14.5619C105.617 14.443 105.617 14.324 105.617 13.0797V11.4077C105.617 11.0525 105.59 11.0283 104.971 11.0283H101.281Z" fill="#013366"/>
<path d="M50.5581 17.4958C51.6183 16.6808 52.9696 16.2789 54.4803 16.2789C55.2641 16.2789 56.3682 16.4364 57.0512 16.6229C57.2252 16.6663 57.3276 16.6952 57.4577 16.6808C57.4723 17.0103 57.5455 17.9106 57.661 18.7852C57.5878 18.8848 57.3699 18.8993 57.2691 18.8141C57.0512 17.8415 56.3975 16.7242 54.2917 16.7242C52.0688 16.7242 50.1809 18.1132 50.1809 21.0744C50.1809 24.0357 52.1127 25.7398 54.4949 25.7398C56.3682 25.7398 57.1975 24.5373 57.5309 23.6933C57.6333 23.6225 57.8512 23.6499 57.9081 23.7511C57.8073 24.4955 57.4284 25.4392 57.2105 25.7124C57.0365 25.7414 56.8625 25.7977 56.7015 25.8555C56.3812 25.9697 55.3356 26.1851 54.4071 26.1851C53.0997 26.1851 51.8509 25.9279 50.7906 25.2269C49.628 24.4392 48.7271 23.1386 48.7271 21.2915C48.7271 19.7031 49.454 18.3431 50.5581 17.4991V17.4958Z" fill="#013366"/>
<path d="M58.5033 22.1258C58.5033 19.7546 60.3912 17.9412 62.9848 17.9412C65.8923 17.9412 67.3526 19.9202 67.3526 22.0069C67.3526 24.4006 65.4142 26.1433 62.9848 26.1433C60.1896 26.1433 58.5033 24.2591 58.5033 22.1242V22.1258ZM66.094 22.375C66.094 20.4185 65.1752 18.3093 62.7702 18.3093C61.4612 18.3093 59.7619 19.1517 59.7619 21.7464C59.7619 23.5003 60.6676 25.7768 63.1474 25.7768C64.6581 25.7768 66.094 24.7093 66.094 22.375Z" fill="#013366"/>
<path d="M81.555 21.1066C81.555 20.3719 81.529 19.0086 81.3127 18.6533C81.2233 18.5103 80.9956 18.4283 80.6769 18.4042L80.3598 18.38C80.2834 18.2964 80.3094 18.1437 80.3842 18.0955C80.8671 18.1196 81.3371 18.1309 81.833 18.1309C82.3664 18.1309 82.7095 18.118 83.1681 18.0955C83.2689 18.155 83.2575 18.3093 83.1941 18.38L82.8884 18.4042C82.5713 18.4283 82.329 18.5344 82.2526 18.6887C82.0753 19.0794 82.0753 20.4426 82.0753 21.1066V22.4457C82.0753 23.4778 81.8965 24.5678 81.1859 25.2784C80.6395 25.8362 79.6996 26.1433 78.7581 26.1433C77.8816 26.1433 77.0035 25.989 76.3807 25.4922C75.7075 24.9713 75.3888 24.1048 75.3888 22.6949V19.8976C75.3888 18.6646 75.3628 18.4636 74.6261 18.4042L74.3074 18.38C74.231 18.3334 74.257 18.1309 74.3318 18.0955C74.9676 18.1196 75.4002 18.1309 75.9075 18.1309C76.4148 18.1309 76.8474 18.118 77.4702 18.0955C77.5466 18.1309 77.5726 18.3318 77.4962 18.38L77.1905 18.4042C76.4539 18.4636 76.4279 18.6646 76.4279 19.8976V22.4586C76.4279 24.3669 77.0637 25.624 79.0085 25.624C80.8509 25.624 81.5501 24.272 81.5501 22.4715V21.1082L81.555 21.1066Z" fill="#013366"/>
<path d="M96.3266 19.626C96.3266 18.7402 96.2696 18.5119 95.6387 18.4652L95.1883 18.4218C95.1379 18.3768 95.1102 18.1357 95.2029 18.1293C95.9623 18.073 96.9168 18.0344 98.2226 18.0344C99.1072 18.0344 99.9495 18.0939 100.582 18.3688C101.185 18.6212 101.649 19.0987 101.649 19.8655C101.649 20.7272 101.059 21.1709 100.216 21.5053C100.216 21.6259 100.328 21.6612 100.483 21.6853C101.242 21.8043 102.366 22.4039 102.366 23.6852C102.366 25.0742 101.158 26.0083 98.6291 26.0083C98.2226 26.0083 97.5331 25.9729 96.9429 25.9729C96.3526 25.9729 95.8469 25.997 95.3281 26.0083C95.2436 25.9729 95.2159 25.7816 95.3005 25.7092L95.5525 25.6739C96.2973 25.5662 96.3249 25.4343 96.3249 24.1772V19.6276L96.3266 19.626ZM97.4778 21.2175C97.4778 21.5535 97.4925 21.5776 98.208 21.5535C99.6406 21.5053 100.413 21.1468 100.413 20.0214C100.413 18.8961 99.3885 18.4058 98.3202 18.4058C98.0112 18.4058 97.7998 18.4299 97.6746 18.4781C97.5331 18.5135 97.4778 18.573 97.4778 18.79V21.2207V21.2175ZM97.4778 23.9955C97.4778 24.4263 97.5055 25.0372 97.7722 25.3009C98.0388 25.5758 98.46 25.6353 98.8812 25.6353C100.132 25.6353 101.086 25.1562 101.086 23.9585C101.086 23.0132 100.525 21.912 98.2909 21.912C97.5315 21.912 97.4762 21.9827 97.4762 22.2239V23.9955H97.4778Z" fill="#013366"/>
<path d="M73.4358 14.5957L73.1025 14.5667C73.0358 14.5603 72.9756 14.5507 72.9187 14.5426C72.4325 14.4574 72.2374 14.0282 72.0081 13.6311L70.8568 11.6505C70.6584 11.3209 70.4454 10.8756 69.9901 10.8129C71.169 10.6731 72.2358 9.99947 72.2358 8.84519C72.2358 7.51085 70.9007 6.91442 69.5494 6.91442C68.7396 6.91442 68.0014 6.93532 67.1769 6.93532C66.7233 6.93532 66.1818 6.91442 65.7264 6.91442C65.4744 6.91442 65.4711 6.96587 65.4711 7.10412C65.4711 7.3099 65.559 7.25202 65.8273 7.2681C66.7867 7.32115 66.7509 7.49799 66.7509 8.31145V13.5057C66.7509 14.2484 66.8159 14.4703 66.0256 14.541C66.0256 14.541 65.9053 14.5539 65.8354 14.5603L65.5004 14.5941C65.4207 14.6648 65.4468 14.8545 65.5264 14.8899C65.7037 14.8834 66.0191 14.8706 66.0191 14.8706C66.4566 14.8577 66.894 14.8256 67.3298 14.8256C67.7656 14.8256 68.19 14.8593 68.6225 14.8722C68.7754 14.877 68.938 14.8834 69.1153 14.8883C69.1949 14.8529 69.2226 14.6632 69.1413 14.5925L68.8047 14.5603C68.7364 14.5539 68.6177 14.5426 68.6177 14.5426C67.8209 14.4896 67.8697 14.2677 67.8697 13.5041V11.5476C67.8697 11.4335 67.855 11.128 67.9412 11.0396C68.0128 10.9624 68.1396 10.9753 68.2534 10.9753C69.3332 10.9753 69.3185 11.0766 69.8307 11.9656L71.2227 14.4413C71.3365 14.6327 71.4211 14.8738 71.7056 14.8738H72.9155C73.0683 14.8786 73.2277 14.8834 73.4049 14.8899C73.4846 14.8545 73.5106 14.6648 73.4309 14.5941L73.4358 14.5957ZM68.5851 10.7004C68.3429 10.7004 67.8599 10.7888 67.8599 10.4721V8.19892C67.8599 7.3099 67.8892 7.1829 68.9689 7.1829C70.234 7.1829 71.0146 7.81791 71.0146 8.98666C71.0146 9.49467 70.8292 9.9641 70.3609 10.2824C69.821 10.6506 69.2388 10.702 68.5851 10.702V10.7004Z" fill="#013366"/>
<path d="M68.847 19.9378C68.847 18.6935 68.8209 18.5038 67.99 18.4443L67.6599 18.4202C67.5802 18.372 67.6079 18.1598 67.6859 18.1244C68.4242 18.1485 68.873 18.1598 69.3998 18.1598C69.9267 18.1598 70.3625 18.1485 71.0227 18.1244C71.1024 18.1598 71.1284 18.3736 71.0487 18.4202L70.7316 18.4443C69.9543 18.5038 69.9267 18.6935 69.9267 19.9378V24.063C69.9267 24.809 69.9657 25.1176 70.2031 25.3427C70.3479 25.4729 70.5983 25.616 71.6406 25.616C72.761 25.616 73.0391 25.5678 73.2505 25.4617C73.5139 25.3186 73.857 24.8926 74.1204 24.2881C74.2001 24.2286 74.4505 24.2768 74.4505 24.3588C74.4505 24.489 74.0814 25.698 73.896 26.0179C73.2244 25.9938 71.9707 25.9825 70.6113 25.9825H69.3982C68.8437 25.9825 68.4225 25.9938 67.6843 26.0179C67.6046 25.9825 67.5786 25.7928 67.6583 25.7221L68.0534 25.6867C68.8177 25.616 68.8453 25.4488 68.8453 24.2045V19.9378H68.847Z" fill="#013366"/>
<path d="M104.176 19.9603C104.176 18.7048 104.15 18.5022 103.386 18.4427L103.062 18.4186C102.984 18.3704 103.01 18.1582 103.088 18.1228C103.735 18.1469 104.176 18.1582 104.719 18.1582C105.262 18.1582 105.677 18.1469 106.324 18.1228C106.402 18.1582 106.428 18.372 106.35 18.4186L106.026 18.4427C105.262 18.5022 105.236 18.7032 105.236 19.9603V24.1804C105.236 25.4375 105.262 25.6031 106.026 25.6851L106.35 25.7205C106.428 25.7687 106.402 25.9809 106.324 26.0163C105.677 25.9922 105.236 25.9809 104.719 25.9809C104.174 25.9809 103.735 25.9922 103.088 26.0163C103.01 25.9809 102.984 25.7912 103.062 25.7205L103.386 25.6851C104.15 25.6015 104.176 25.4359 104.176 24.1804V19.9603Z" fill="#013366"/>
<path d="M93.8289 25.6835C93.7622 25.6771 93.6386 25.6674 93.6386 25.6674C93.502 25.6546 93.3801 25.6353 93.2825 25.5292C93.115 25.3523 93.128 24.8492 93.128 24.6482V19.4539C93.128 19.2273 93.0727 18.7369 93.2402 18.5601C93.3248 18.4669 93.4988 18.4524 93.6549 18.4427C93.7492 18.4347 93.7524 18.4347 93.8354 18.4315L94.1687 18.4074C94.2484 18.3591 94.2224 18.1469 94.1427 18.1116C93.9654 18.118 93.8028 18.1148 93.65 18.1196H92.2353C92.0808 18.1196 91.9409 18.1196 91.858 18.2836L88.9749 24.219L86.4284 18.4845C86.3439 18.2836 86.3309 18.1196 86.0642 18.1196H84.5926C84.4397 18.1148 84.2706 18.1164 84.0917 18.11C84.012 18.1453 83.9844 18.3591 84.0657 18.4058L84.3991 18.4299C84.4673 18.4347 84.5926 18.4444 84.5926 18.4444C85.1454 18.4797 85.1796 18.6019 85.1292 19.1758L84.695 24.7463C84.6576 25.3057 84.6267 25.6015 84.0332 25.6562C84.0332 25.6562 83.908 25.6723 83.8397 25.6787L83.5079 25.7141C83.4283 25.7848 83.4543 25.9745 83.534 26.0099C83.7096 26.0034 84.0218 25.9938 84.0218 25.9938C84.3226 25.9793 84.6283 25.9536 84.934 25.9536C85.2641 25.9536 85.5942 25.9841 85.926 25.997C86.0788 26.0018 86.2414 26.0083 86.4187 26.0131C86.4984 25.9777 86.526 25.788 86.4447 25.7173L86.113 25.6819C86.0252 25.6755 85.9276 25.6658 85.9276 25.6658C85.0723 25.608 85.0918 25.0115 85.1454 24.28L85.552 19.0987H85.6495L88.4058 25.4745C88.4334 25.5629 88.4757 25.7141 88.6156 25.7141C88.7424 25.7141 88.783 25.5758 88.8253 25.4874L91.9312 18.9475H92.0288V24.645C92.0288 24.8717 92.0564 25.3363 91.819 25.5131C91.6954 25.6047 91.2905 25.6594 91.2905 25.6594C91.2352 25.6674 91.1767 25.6755 91.11 25.6835L90.7783 25.7189C90.6986 25.7896 90.7246 25.9793 90.8043 26.0147C90.9799 26.0083 91.2905 25.9986 91.2905 25.9986C91.7409 25.9857 92.1995 25.9536 92.6581 25.9536C92.9882 25.9536 93.6337 25.9841 93.6337 25.9841C93.7882 25.989 93.9622 26.005 94.1411 26.0115C94.2207 25.9761 94.2484 25.7864 94.1671 25.7157L93.8337 25.6803L93.8289 25.6835Z" fill="#013366"/>
<path d="M115.451 25.7157L115.406 25.6803C115.339 25.6739 115.28 25.6658 115.225 25.6562C114.706 25.542 114.505 24.9247 114.313 24.4842L111.644 18.2418C111.618 18.1662 111.565 18.0055 111.459 18.0055C111.314 18.0055 111.274 18.1791 111.235 18.2788L108.685 24.5099C108.592 24.7463 108.355 25.3186 108.183 25.4922C108.051 25.6256 107.88 25.6514 107.696 25.669C107.696 25.669 107.553 25.6819 107.483 25.6899L107.169 25.7221C107.09 25.7928 107.116 25.9825 107.195 26.0179C107.373 26.0115 107.688 26.0002 107.688 26.0002C108.036 25.9954 108.386 25.952 108.735 25.952C109.03 25.952 109.322 25.9825 109.615 25.9954C109.615 25.9954 109.931 26.0066 110.108 26.0131C110.187 25.9777 110.214 25.788 110.134 25.7173L109.8 25.6819C109.734 25.6755 109.62 25.6642 109.62 25.6642C109.313 25.6305 108.931 25.5758 108.931 25.243C108.931 25.0196 109.036 24.7575 109.116 24.5598L109.513 23.6274C109.711 23.1804 109.631 23.129 110.16 23.129H111.957C112.591 23.129 112.498 23.129 112.776 23.764L113.199 24.7093C113.266 24.8717 113.384 25.145 113.384 25.3186C113.384 25.6305 113.04 25.6514 112.716 25.6787C112.716 25.6787 112.609 25.6883 112.516 25.6948L112.196 25.7173C112.116 25.788 112.142 25.9777 112.223 26.0131C112.401 26.0066 112.716 25.9938 112.716 25.9938C113.092 25.9809 113.471 25.952 113.833 25.952C114.297 25.952 114.758 25.9825 115.222 25.9954C115.373 26.0002 115.245 26.005 115.42 26.0115C115.5 25.9761 115.526 25.7864 115.446 25.7157H115.451ZM111.957 22.7817H110.401C110.347 22.7817 109.913 22.8316 109.913 22.7062C109.913 22.6676 109.94 22.5936 109.953 22.5551L110.888 20.2674C110.916 20.2047 111.01 19.8896 111.118 19.8896C111.199 19.8896 111.308 20.216 111.334 20.2674L112.254 22.4039C112.254 22.4297 112.349 22.6306 112.349 22.6805C112.349 22.8187 112.038 22.7801 111.957 22.7801V22.7817Z" fill="#013366"/>
<path d="M37.1964 17.0393L38.0712 17.3978L40.0112 16.0602L37.1964 17.0393Z" fill="#FCBA19"/>
<path d="M4.6043 15.5458L2.30498 14.7468L2.42043 14.4687L5.0092 15.3223L5.02058 15.3159L5.36206 15.1246L5.49866 15.0394L2.67573 13.8513L2.79444 13.5588L9.09561 16.0779L9.30375 15.9927L3.05299 12.9816L3.19284 12.6987L9.81597 15.7467L9.90703 15.7001L3.48553 12.099L3.61725 11.8289L12.8909 16.8174C12.9674 16.6792 13.1251 16.4252 13.208 16.2901C9.68263 13.0122 6.27919 10.5525 6.27919 10.5525C6.27919 10.5525 9.77857 12.8691 14.0959 15.0233C14.239 14.8481 14.3561 14.7066 14.5073 14.5394L6.59628 7.65393L6.8093 7.43851L13.195 12.8192L7.27924 6.96265L7.5004 6.73597L14.1414 13.0813L7.95896 6.29709L8.19474 6.08649L13.9089 12.136L8.69396 5.63957L8.91836 5.43701L15.6033 13.48C15.7757 13.3321 15.9204 13.2212 16.1009 13.0845C14.078 8.75837 11.8697 5.23927 11.8697 5.23927C11.8697 5.23927 14.2211 8.66031 17.392 12.2421C17.5855 12.1344 17.7823 12.0315 17.9823 11.9334L17.9481 11.9125L13.2633 2.66867L13.5414 2.5481L17.4229 9.9014L14.1577 2.27962L14.4488 2.15101L18.2018 10.4946L15.039 1.91469L15.3382 1.80698L18.3449 9.53164L15.9708 1.57548L16.2554 1.47098L19.3807 11.3386L19.3742 11.3643L19.3824 11.3611C19.5905 11.292 19.8019 11.2309 20.0149 11.1746C19.7775 6.43535 19.0685 2.3809 19.0685 2.3809C19.0685 2.3809 19.9466 6.39998 21.5207 10.8804C21.7402 10.8531 21.9614 10.8306 22.1825 10.8161L22.176 10.8065H22.2037L22.1874 10.784L21.3467 0.477466L21.6508 0.467821L22.4638 8.72301L22.324 0.446921L22.6427 0.435668L22.9614 9.56219L23.2801 0.435668L23.5989 0.446921L23.459 8.72301L24.2721 0.467821L24.5762 0.477466L23.7355 10.784L23.7192 10.8065H23.7241V10.8097H23.7355C23.9534 10.8226 24.168 10.8451 24.3827 10.8708C25.9551 6.39516 26.8316 2.38251 26.8316 2.38251C26.8316 2.38251 26.1242 6.42409 25.8852 11.1554C26.0998 11.2116 26.3128 11.2727 26.521 11.3402L29.635 1.50796L29.9212 1.61245L27.5471 9.56701L30.5537 1.84235L30.8529 1.95006L27.6902 10.53L31.4432 2.18638L31.7343 2.31499L28.4691 9.93677L32.3506 2.58346L32.6286 2.70404L27.9601 11.9158L27.9682 11.919C28.1601 12.0122 28.3487 12.1103 28.5357 12.2132C31.6936 8.64262 34.0303 5.24088 34.0303 5.24088C34.0303 5.24088 31.8367 8.73587 29.8204 13.0411C30.0009 13.1761 30.1765 13.3144 30.3472 13.4591L36.9541 5.50292L37.1801 5.70548L31.9636 12.2019L37.6777 6.1524L37.9135 6.363L31.731 13.1472L38.3721 6.80189L38.5932 7.02856L32.6774 12.8852L39.0632 7.50442L39.2762 7.71984L31.4611 14.5282L31.466 14.533C31.6026 14.6841 31.7343 14.8384 31.8627 14.996C36.154 12.8514 39.6209 10.5557 39.6209 10.5557C39.6209 10.5557 36.2516 12.9929 32.7441 16.2467C32.84 16.4059 32.9961 16.676 33.084 16.8399L42.2259 11.919L42.3577 12.1907L35.0597 16.2821L42.6503 12.7903L42.7902 13.0733L35.7199 16.4798L35.8548 16.5264L43.0487 13.6504L43.1691 13.943L36.4825 16.7547L36.6077 16.8062L41.0633 15.3384L41.7349 14.8754L41.9576 15.0442L43.4244 14.5603L43.5398 14.8384L42.2715 15.2805L44.1041 16.6631L44.6911 16.9862C42.3381 7.24077 33.4775 0 22.9061 0C12.3348 0 3.16031 7.49638 0.997589 17.4942C1.02523 17.4814 1.05288 17.4685 1.08052 17.4557L1.34883 17.3351L1.51307 17.2595L4.6043 15.5458Z" fill="#FCBA19"/>
<path d="M0.870753 26.1787C0.870753 26.1787 4.175 25.526 6.93451 25.526C14.2032 25.526 24.2591 29.5724 31.5554 29.5724C36.9069 29.5724 42.1284 28.1207 44.9724 26.005C45.1952 24.7527 45.3107 23.465 45.3107 22.1499C45.3107 20.3687 45.096 18.6373 44.6944 16.9782L41.6535 15.3014L38.0842 17.7756L35.6841 16.8512C34.871 17.2579 29.8578 20.5729 29.8578 20.5729L27.9324 19.1951L25.8673 18.7916L23.1143 16.8094L19.9564 18.9524C19.9564 18.9524 16.4326 20.9748 16.3123 20.9748C16.1919 20.9748 12.0616 17.7386 12.0616 17.7386L10.1591 15.7564C9.83549 15.959 8.54111 16.5457 8.54111 16.5457L8.47443 16.5634L7.22233 16.1808L5.70192 15.3834L1.08215 17.454C1.0545 17.4669 1.02686 17.4798 0.999215 17.4926C0.672367 18.9958 0.5 20.5536 0.5 22.1499C0.5 23.5261 0.628463 24.8717 0.870753 26.1787Z" fill="#013366"/>
</g>
<defs>
<clipPath id="clip0_10818_286">
<rect width="115" height="30" fill="white" transform="translate(0.5)"/>
</clipPath>
</defs>
</svg>
